<?xml version="1.0" standalone="no"?>
 <!DOCTYPE svg PUBLIC "-//W3C//DTD SVG 1.1//EN" 
 "http://www.w3.org/Graphics/SVG/1.1/DTD/svg11.dtd"> 
<svg
  xmlns:svg="http://www.w3.org/2000/svg"
  xmlns="http://www.w3.org/2000/svg"
  xmlns:xlink="http://www.w3.org/1999/xlink"
  version="1.1"
  width="6.616700cm" height="9.410700cm" viewBox="0 0 66167000 94107000">
<title>SVG Picture created as mayfly-atlas-shield-brd.svg date 2022/08/08 15:32:41 </title>
  <desc>Picture generated by PCBNEW </desc>
<g style="fill:#000000; fill-opacity:1.000000;stroke:#000000; stroke-opacity:1.000000;
stroke-linecap:round; stroke-linejoin:round;"
 transform="translate(0 0) scale(1 1)">
</g>
<g style="fill:#000000; fill-opacity:0.0; 
stroke:#000000; stroke-width:0.000000; stroke-opacity:1; 
stroke-linecap:round; stroke-linejoin:round;">
<g >
</g>
<g >
</g>
<g >
</g>
<g >
</g>
<g >
</g>
<g >
</g>
<g >
</g>
<g >
</g>
<g >
</g>
<g >
</g>
<g >
</g>
<g >
</g>
<g >
</g>
<g >
</g>
<g >
</g>
<g >
</g>
<g >
</g>
<g >
</g>
<g >
</g>
<g >
</g>
<g >
</g>
<g >
</g>
<g >
</g>
<g >
</g>
<g >
</g>
<g >
</g>
<g >
</g>
<g >
</g>
<g >
</g>
<g >
</g>
<g >
</g>
<g >
</g>
<g >
</g>
<g >
</g>
<g >
</g>
<g >
</g>
<g >
</g>
<g >
</g>
<g >
</g>
<g >
</g>
<g >
</g>
<g >
</g>
<g >
</g>
</g>
<g style="fill:#000000; fill-opacity:0.0; 
stroke:#000000; stroke-width:0.000000; stroke-opacity:1; 
stroke-linecap:round; stroke-linejoin:round;">
</g>
<g style="fill:#F2EDA1; fill-opacity:0.0; 
stroke:#F2EDA1; stroke-width:0.000000; stroke-opacity:1; 
stroke-linecap:round; stroke-linejoin:round;">
</g>
<g style="fill:#F2EDA1; fill-opacity:0.0; 
stroke:#F2EDA1; stroke-width:150000.000000; stroke-opacity:1; 
stroke-linecap:round; stroke-linejoin:round;">
<text x="26705000.000000" y="82490000.000000"
textLength="2671190.000000" font-size="1333333.000000" lengthAdjust="spacingAndGlyphs"
text-anchor="middle" opacity="0">JT1</text>
<g class="stroked-text"><desc>JT1</desc>
<path d="M25990714 81442380
L25990714 82156666
L25943095 82299523
L25847857 82394761
L25705000 82442380
L25609761 82442380
" />
<path d="M26324047 81442380
L26895476 81442380
" />
<path d="M26609761 82442380
L26609761 81442380
" />
<path d="M27752619 82442380
L27181190 82442380
" />
<path d="M27466904 82442380
L27466904 81442380
L27371666 81585238
L27276428 81680476
L27181190 81728095
" />
</g><text x="39405000.000000" y="82490000.000000"
textLength="2671190.000000" font-size="1333333.000000" lengthAdjust="spacingAndGlyphs"
text-anchor="middle" opacity="0">JT2</text>
<g class="stroked-text"><desc>JT2</desc>
<path d="M38690714 81442380
L38690714 82156666
L38643095 82299523
L38547857 82394761
L38405000 82442380
L38309761 82442380
" />
<path d="M39024047 81442380
L39595476 81442380
" />
<path d="M39309761 82442380
L39309761 81442380
" />
<path d="M39881190 81537619
L39928809 81490000
L40024047 81442380
L40262142 81442380
L40357380 81490000
L40405000 81537619
L40452619 81632857
L40452619 81728095
L40405000 81870952
L39833571 82442380
L40452619 82442380
" />
</g><text x="39485000.000000" y="13275000.000000"
textLength="2671190.000000" font-size="1333333.000000" lengthAdjust="spacingAndGlyphs"
text-anchor="middle" opacity="0">JT3</text>
<g class="stroked-text"><desc>JT3</desc>
<path d="M38770714 12227380
L38770714 12941666
L38723095 13084523
L38627857 13179761
L38485000 13227380
L38389761 13227380
" />
<path d="M39104047 12227380
L39675476 12227380
" />
<path d="M39389761 13227380
L39389761 12227380
" />
<path d="M39913571 12227380
L40532619 12227380
L40199285 12608333
L40342142 12608333
L40437380 12655952
L40485000 12703571
L40532619 12798809
L40532619 13036904
L40485000 13132142
L40437380 13179761
L40342142 13227380
L40056428 13227380
L39961190 13179761
L39913571 13132142
" />
</g><text x="26785000.000000" y="13275000.000000"
textLength="2671190.000000" font-size="1333333.000000" lengthAdjust="spacingAndGlyphs"
text-anchor="middle" opacity="0">JT4</text>
<g class="stroked-text"><desc>JT4</desc>
<path d="M26070714 12227380
L26070714 12941666
L26023095 13084523
L25927857 13179761
L25785000 13227380
L25689761 13227380
" />
<path d="M26404047 12227380
L26975476 12227380
" />
<path d="M26689761 13227380
L26689761 12227380
" />
<path d="M27737380 12560714
L27737380 13227380
" />
<path d="M27499285 12179761
L27261190 12894047
L27880238 12894047
" />
</g><text x="62305000.000000" y="58360000.000000"
textLength="1909286.000000" font-size="1333333.000000" lengthAdjust="spacingAndGlyphs"
text-anchor="middle" opacity="0">J2</text>
<g class="stroked-text"><desc>J2</desc>
<path d="M61971666 57312380
L61971666 58026666
L61924047 58169523
L61828809 58264761
L61685952 58312380
L61590714 58312380
" />
<path d="M62400238 57407619
L62447857 57360000
L62543095 57312380
L62781190 57312380
L62876428 57360000
L62924047 57407619
L62971666 57502857
L62971666 57598095
L62924047 57740952
L62352619 58312380
L62971666 58312380
" />
</g><text x="4520000.000000" y="57090000.000000"
textLength="1909286.000000" font-size="1333333.000000" lengthAdjust="spacingAndGlyphs"
text-anchor="middle" opacity="0">J1</text>
<g class="stroked-text"><desc>J1</desc>
<path d="M4186666 56042380
L4186666 56756666
L4139047 56899523
L4043809 56994761
L3900952 57042380
L3805714 57042380
" />
<path d="M5186666 57042380
L4615238 57042380
" />
<path d="M4900952 57042380
L4900952 56042380
L4805714 56185238
L4710476 56280476
L4615238 56328095
" />
</g><text x="40715000.000000" y="50105000.000000"
textLength="2004524.000000" font-size="1333333.000000" lengthAdjust="spacingAndGlyphs"
text-anchor="middle" opacity="0">A2</text>
<g class="stroked-text"><desc>A2</desc>
<path d="M40000714 49771666
L40476904 49771666
" />
<path d="M39905476 50057380
L40238809 49057380
L40572142 50057380
" />
<path d="M40857857 49152619
L40905476 49105000
L41000714 49057380
L41238809 49057380
L41334047 49105000
L41381666 49152619
L41429285 49247857
L41429285 49343095
L41381666 49485952
L40810238 50057380
L41429285 50057380
" />
</g><text x="25475000.000000" y="20895000.000000"
textLength="2004524.000000" font-size="1333333.000000" lengthAdjust="spacingAndGlyphs"
text-anchor="middle" opacity="0">A4</text>
<g class="stroked-text"><desc>A4</desc>
<path d="M24760714 20561666
L25236904 20561666
" />
<path d="M24665476 20847380
L24998809 19847380
L25332142 20847380
" />
<path d="M26094047 20180714
L26094047 20847380
" />
<path d="M25855952 19799761
L25617857 20514047
L26236904 20514047
" />
</g><text x="25475000.000000" y="50105000.000000"
textLength="2004524.000000" font-size="1333333.000000" lengthAdjust="spacingAndGlyphs"
text-anchor="middle" opacity="0">A1</text>
<g class="stroked-text"><desc>A1</desc>
<path d="M24760714 49771666
L25236904 49771666
" />
<path d="M24665476 50057380
L24998809 49057380
L25332142 50057380
" />
<path d="M26189285 50057380
L25617857 50057380
" />
<path d="M25903571 50057380
L25903571 49057380
L25808333 49200238
L25713095 49295476
L25617857 49343095
" />
</g><text x="40715000.000000" y="20895000.000000"
textLength="2004524.000000" font-size="1333333.000000" lengthAdjust="spacingAndGlyphs"
text-anchor="middle" opacity="0">A3</text>
<g class="stroked-text"><desc>A3</desc>
<path d="M40000714 20561666
L40476904 20561666
" />
<path d="M39905476 20847380
L40238809 19847380
L40572142 20847380
" />
<path d="M40810238 19847380
L41429285 19847380
L41095952 20228333
L41238809 20228333
L41334047 20275952
L41381666 20323571
L41429285 20418809
L41429285 20656904
L41381666 20752142
L41334047 20799761
L41238809 20847380
L40953095 20847380
L40857857 20799761
L40810238 20752142
" />
</g><g transform="rotate(-90.000000 29920000.000000 67742500.000000)">
<text x="29920000.000000" y="68242500.000000"
textLength="2147381.000000" font-size="1333333.000000" lengthAdjust="spacingAndGlyphs"
text-anchor="middle" opacity="0">R3</text>
</g>
<g class="stroked-text"><desc>R3</desc>
<path d="M30372380 67909166
L29896190 68242500
" />
<path d="M30372380 68480595
L29372380 68480595
L29372380 68099642
L29420000 68004404
L29467619 67956785
L29562857 67909166
L29705714 67909166
L29800952 67956785
L29848571 68004404
L29896190 68099642
L29896190 68480595
" />
<path d="M29372380 67575833
L29372380 66956785
L29753333 67290119
L29753333 67147261
L29800952 67052023
L29848571 67004404
L29943809 66956785
L30181904 66956785
L30277142 67004404
L30324761 67052023
L30372380 67147261
L30372380 67432976
L30324761 67528214
L30277142 67575833
" />
</g><text x="55320000.000000" y="52645000.000000"
textLength="2147381.000000" font-size="1333333.000000" lengthAdjust="spacingAndGlyphs"
text-anchor="middle" opacity="0">R1</text>
<g class="stroked-text"><desc>R1</desc>
<path d="M55153333 52597380
L54820000 52121190
" />
<path d="M54581904 52597380
L54581904 51597380
L54962857 51597380
L55058095 51645000
L55105714 51692619
L55153333 51787857
L55153333 51930714
L55105714 52025952
L55058095 52073571
L54962857 52121190
L54581904 52121190
" />
<path d="M56105714 52597380
L55534285 52597380
" />
<path d="M55820000 52597380
L55820000 51597380
L55724761 51740238
L55629523 51835476
L55534285 51883095
" />
</g><g transform="rotate(-90.000000 22935000.000000 38532500.000000)">
<text x="22935000.000000" y="39032500.000000"
textLength="3099762.000000" font-size="1333333.000000" lengthAdjust="spacingAndGlyphs"
text-anchor="middle" opacity="0">R10</text>
</g>
<g class="stroked-text"><desc>R10</desc>
<path d="M23387380 39175357
L22911190 39508690
" />
<path d="M23387380 39746785
L22387380 39746785
L22387380 39365833
L22435000 39270595
L22482619 39222976
L22577857 39175357
L22720714 39175357
L22815952 39222976
L22863571 39270595
L22911190 39365833
L22911190 39746785
" />
<path d="M23387380 38222976
L23387380 38794404
" />
<path d="M23387380 38508690
L22387380 38508690
L22530238 38603928
L22625476 38699166
L22673095 38794404
" />
<path d="M22387380 37603928
L22387380 37508690
L22435000 37413452
L22482619 37365833
L22577857 37318214
L22768333 37270595
L23006428 37270595
L23196904 37318214
L23292142 37365833
L23339761 37413452
L23387380 37508690
L23387380 37603928
L23339761 37699166
L23292142 37746785
L23196904 37794404
L23006428 37842023
L22768333 37842023
L22577857 37794404
L22482619 37746785
L22435000 37699166
L22387380 37603928
" />
</g><text x="40715000.000000" y="29785000.000000"
textLength="2195000.000000" font-size="1333333.000000" lengthAdjust="spacingAndGlyphs"
text-anchor="middle" opacity="0">U5</text>
<g class="stroked-text"><desc>U5</desc>
<path d="M39953095 28737380
L39953095 29546904
L40000714 29642142
L40048333 29689761
L40143571 29737380
L40334047 29737380
L40429285 29689761
L40476904 29642142
L40524523 29546904
L40524523 28737380
" />
<path d="M41476904 28737380
L41000714 28737380
L40953095 29213571
L41000714 29165952
L41095952 29118333
L41334047 29118333
L41429285 29165952
L41476904 29213571
L41524523 29308809
L41524523 29546904
L41476904 29642142
L41429285 29689761
L41334047 29737380
L41095952 29737380
L41000714 29689761
L40953095 29642142
" />
</g><text x="53415000.000000" y="84395000.000000"
textLength="1909286.000000" font-size="1333333.000000" lengthAdjust="spacingAndGlyphs"
text-anchor="middle" opacity="0">J4</text>
<g class="stroked-text"><desc>J4</desc>
<path d="M53081666 83347380
L53081666 84061666
L53034047 84204523
L52938809 84299761
L52795952 84347380
L52700714 84347380
" />
<path d="M53986428 83680714
L53986428 84347380
" />
<path d="M53748333 83299761
L53510238 84014047
L54129285 84014047
" />
</g><text x="40715000.000000" y="59405000.000000"
textLength="2195000.000000" font-size="1333333.000000" lengthAdjust="spacingAndGlyphs"
text-anchor="middle" opacity="0">U3</text>
<g class="stroked-text"><desc>U3</desc>
<path d="M39953095 58357380
L39953095 59166904
L40000714 59262142
L40048333 59309761
L40143571 59357380
L40334047 59357380
L40429285 59309761
L40476904 59262142
L40524523 59166904
L40524523 58357380
" />
<path d="M40905476 58357380
L41524523 58357380
L41191190 58738333
L41334047 58738333
L41429285 58785952
L41476904 58833571
L41524523 58928809
L41524523 59166904
L41476904 59262142
L41429285 59309761
L41334047 59357380
L41048333 59357380
L40953095 59309761
L40905476 59262142
" />
</g><text x="12775000.000000" y="84395000.000000"
textLength="1909286.000000" font-size="1333333.000000" lengthAdjust="spacingAndGlyphs"
text-anchor="middle" opacity="0">J3</text>
<g class="stroked-text"><desc>J3</desc>
<path d="M12441666 83347380
L12441666 84061666
L12394047 84204523
L12298809 84299761
L12155952 84347380
L12060714 84347380
" />
<path d="M12822619 83347380
L13441666 83347380
L13108333 83728333
L13251190 83728333
L13346428 83775952
L13394047 83823571
L13441666 83918809
L13441666 84156904
L13394047 84252142
L13346428 84299761
L13251190 84347380
L12965476 84347380
L12870238 84299761
L12822619 84252142
" />
</g><g transform="rotate(-90.000000 38810000.000000 67435436.000000)">
<text x="38810000.000000" y="67935436.000000"
textLength="2147381.000000" font-size="1333333.000000" lengthAdjust="spacingAndGlyphs"
text-anchor="middle" opacity="0">R6</text>
</g>
<g class="stroked-text"><desc>R6</desc>
<path d="M39262380 67602102
L38786190 67935436
" />
<path d="M39262380 68173531
L38262380 68173531
L38262380 67792578
L38310000 67697340
L38357619 67649721
L38452857 67602102
L38595714 67602102
L38690952 67649721
L38738571 67697340
L38786190 67792578
L38786190 68173531
" />
<path d="M38262380 66744959
L38262380 66935436
L38310000 67030674
L38357619 67078293
L38500476 67173531
L38690952 67221150
L39071904 67221150
L39167142 67173531
L39214761 67125912
L39262380 67030674
L39262380 66840197
L39214761 66744959
L39167142 66697340
L39071904 66649721
L38833809 66649721
L38738571 66697340
L38690952 66744959
L38643333 66840197
L38643333 67030674
L38690952 67125912
L38738571 67173531
L38833809 67221150
" />
</g><text x="9473000.000000" y="33341000.000000"
textLength="2147381.000000" font-size="1333333.000000" lengthAdjust="spacingAndGlyphs"
text-anchor="middle" opacity="0">C7</text>
<g class="stroked-text"><desc>C7</desc>
<path d="M9306333 33198142
L9258714 33245761
L9115857 33293380
L9020619 33293380
L8877761 33245761
L8782523 33150523
L8734904 33055285
L8687285 32864809
L8687285 32721952
L8734904 32531476
L8782523 32436238
L8877761 32341000
L9020619 32293380
L9115857 32293380
L9258714 32341000
L9306333 32388619
" />
<path d="M9639666 32293380
L10306333 32293380
L9877761 33293380
" />
</g><text x="25475000.000000" y="29785000.000000"
textLength="2195000.000000" font-size="1333333.000000" lengthAdjust="spacingAndGlyphs"
text-anchor="middle" opacity="0">U7</text>
<g class="stroked-text"><desc>U7</desc>
<path d="M24713095 28737380
L24713095 29546904
L24760714 29642142
L24808333 29689761
L24903571 29737380
L25094047 29737380
L25189285 29689761
L25236904 29642142
L25284523 29546904
L25284523 28737380
" />
<path d="M25665476 28737380
L26332142 28737380
L25903571 29737380
" />
</g><text x="47065000.000000" y="32960000.000000"
textLength="2147381.000000" font-size="1333333.000000" lengthAdjust="spacingAndGlyphs"
text-anchor="middle" opacity="0">C5</text>
<g class="stroked-text"><desc>C5</desc>
<path d="M46898333 32817142
L46850714 32864761
L46707857 32912380
L46612619 32912380
L46469761 32864761
L46374523 32769523
L46326904 32674285
L46279285 32483809
L46279285 32340952
L46326904 32150476
L46374523 32055238
L46469761 31960000
L46612619 31912380
L46707857 31912380
L46850714 31960000
L46898333 32007619
" />
<path d="M47803095 31912380
L47326904 31912380
L47279285 32388571
L47326904 32340952
L47422142 32293333
L47660238 32293333
L47755476 32340952
L47803095 32388571
L47850714 32483809
L47850714 32721904
L47803095 32817142
L47755476 32864761
L47660238 32912380
L47422142 32912380
L47326904 32864761
L47279285 32817142
" />
</g><text x="47065000.000000" y="43755000.000000"
textLength="2147381.000000" font-size="1333333.000000" lengthAdjust="spacingAndGlyphs"
text-anchor="middle" opacity="0">C6</text>
<g class="stroked-text"><desc>C6</desc>
<path d="M46898333 43612142
L46850714 43659761
L46707857 43707380
L46612619 43707380
L46469761 43659761
L46374523 43564523
L46326904 43469285
L46279285 43278809
L46279285 43135952
L46326904 42945476
L46374523 42850238
L46469761 42755000
L46612619 42707380
L46707857 42707380
L46850714 42755000
L46898333 42802619
" />
<path d="M47755476 42707380
L47565000 42707380
L47469761 42755000
L47422142 42802619
L47326904 42945476
L47279285 43135952
L47279285 43516904
L47326904 43612142
L47374523 43659761
L47469761 43707380
L47660238 43707380
L47755476 43659761
L47803095 43612142
L47850714 43516904
L47850714 43278809
L47803095 43183571
L47755476 43135952
L47660238 43088333
L47469761 43088333
L47374523 43135952
L47326904 43183571
L47279285 43278809
" />
</g><text x="12775000.000000" y="12005000.000000"
textLength="1909286.000000" font-size="1333333.000000" lengthAdjust="spacingAndGlyphs"
text-anchor="middle" opacity="0">J6</text>
<g class="stroked-text"><desc>J6</desc>
<path d="M12441666 10957380
L12441666 11671666
L12394047 11814523
L12298809 11909761
L12155952 11957380
L12060714 11957380
" />
<path d="M13346428 10957380
L13155952 10957380
L13060714 11005000
L13013095 11052619
L12917857 11195476
L12870238 11385952
L12870238 11766904
L12917857 11862142
L12965476 11909761
L13060714 11957380
L13251190 11957380
L13346428 11909761
L13394047 11862142
L13441666 11766904
L13441666 11528809
L13394047 11433571
L13346428 11385952
L13251190 11338333
L13060714 11338333
L12965476 11385952
L12917857 11433571
L12870238 11528809
" />
</g><text x="47065000.000000" y="73473000.000000"
textLength="2147381.000000" font-size="1333333.000000" lengthAdjust="spacingAndGlyphs"
text-anchor="middle" opacity="0">C4</text>
<g class="stroked-text"><desc>C4</desc>
<path d="M46898333 73330142
L46850714 73377761
L46707857 73425380
L46612619 73425380
L46469761 73377761
L46374523 73282523
L46326904 73187285
L46279285 72996809
L46279285 72853952
L46326904 72663476
L46374523 72568238
L46469761 72473000
L46612619 72425380
L46707857 72425380
L46850714 72473000
L46898333 72520619
" />
<path d="M47755476 72758714
L47755476 73425380
" />
<path d="M47517380 72377761
L47279285 73092047
L47898333 73092047
" />
</g><text x="52780000.000000" y="60900000.000000"
textLength="2195000.000000" font-size="1333333.000000" lengthAdjust="spacingAndGlyphs"
text-anchor="middle" opacity="0">U4</text>
<g class="stroked-text"><desc>U4</desc>
<path d="M52018095 59852380
L52018095 60661904
L52065714 60757142
L52113333 60804761
L52208571 60852380
L52399047 60852380
L52494285 60804761
L52541904 60757142
L52589523 60661904
L52589523 59852380
" />
<path d="M53494285 60185714
L53494285 60852380
" />
<path d="M53256190 59804761
L53018095 60519047
L53637142 60519047
" />
</g><g transform="rotate(-90.000000 45160000.000000 38452500.000000)">
<text x="45160000.000000" y="38952500.000000"
textLength="2147381.000000" font-size="1333333.000000" lengthAdjust="spacingAndGlyphs"
text-anchor="middle" opacity="0">R7</text>
</g>
<g class="stroked-text"><desc>R7</desc>
<path d="M45612380 38619166
L45136190 38952500
" />
<path d="M45612380 39190595
L44612380 39190595
L44612380 38809642
L44660000 38714404
L44707619 38666785
L44802857 38619166
L44945714 38619166
L45040952 38666785
L45088571 38714404
L45136190 38809642
L45136190 39190595
" />
<path d="M44612380 38285833
L44612380 37619166
L45612380 38047738
" />
</g><text x="9473000.000000" y="43501000.000000"
textLength="2147381.000000" font-size="1333333.000000" lengthAdjust="spacingAndGlyphs"
text-anchor="middle" opacity="0">C8</text>
<g class="stroked-text"><desc>C8</desc>
<path d="M9306333 43358142
L9258714 43405761
L9115857 43453380
L9020619 43453380
L8877761 43405761
L8782523 43310523
L8734904 43215285
L8687285 43024809
L8687285 42881952
L8734904 42691476
L8782523 42596238
L8877761 42501000
L9020619 42453380
L9115857 42453380
L9258714 42501000
L9306333 42548619
" />
<path d="M9877761 42881952
L9782523 42834333
L9734904 42786714
L9687285 42691476
L9687285 42643857
L9734904 42548619
L9782523 42501000
L9877761 42453380
L10068238 42453380
L10163476 42501000
L10211095 42548619
L10258714 42643857
L10258714 42691476
L10211095 42786714
L10163476 42834333
L10068238 42881952
L9877761 42881952
L9782523 42929571
L9734904 42977190
L9687285 43072428
L9687285 43262904
L9734904 43358142
L9782523 43405761
L9877761 43453380
L10068238 43453380
L10163476 43405761
L10211095 43358142
L10258714 43262904
L10258714 43072428
L10211095 42977190
L10163476 42929571
L10068238 42881952
" />
</g><g transform="rotate(-90.000000 23570000.000000 67742500.000000)">
<text x="23570000.000000" y="68242500.000000"
textLength="2147381.000000" font-size="1333333.000000" lengthAdjust="spacingAndGlyphs"
text-anchor="middle" opacity="0">R4</text>
</g>
<g class="stroked-text"><desc>R4</desc>
<path d="M24022380 67909166
L23546190 68242500
" />
<path d="M24022380 68480595
L23022380 68480595
L23022380 68099642
L23070000 68004404
L23117619 67956785
L23212857 67909166
L23355714 67909166
L23450952 67956785
L23498571 68004404
L23546190 68099642
L23546190 68480595
" />
<path d="M23355714 67052023
L24022380 67052023
" />
<path d="M22974761 67290119
L23689047 67528214
L23689047 66909166
" />
</g><g transform="rotate(-90.000000 29920000.000000 38810000.000000)">
<text x="29920000.000000" y="39310000.000000"
textLength="2147381.000000" font-size="1333333.000000" lengthAdjust="spacingAndGlyphs"
text-anchor="middle" opacity="0">R9</text>
</g>
<g class="stroked-text"><desc>R9</desc>
<path d="M30372380 38976666
L29896190 39310000
" />
<path d="M30372380 39548095
L29372380 39548095
L29372380 39167142
L29420000 39071904
L29467619 39024285
L29562857 38976666
L29705714 38976666
L29800952 39024285
L29848571 39071904
L29896190 39167142
L29896190 39548095
" />
<path d="M30372380 38500476
L30372380 38310000
L30324761 38214761
L30277142 38167142
L30134285 38071904
L29943809 38024285
L29562857 38024285
L29467619 38071904
L29420000 38119523
L29372380 38214761
L29372380 38405238
L29420000 38500476
L29467619 38548095
L29562857 38595714
L29800952 38595714
L29896190 38548095
L29943809 38500476
L29991428 38405238
L29991428 38214761
L29943809 38119523
L29896190 38071904
L29800952 38024285
" />
</g><text x="9600000.000000" y="62170000.000000"
textLength="2147381.000000" font-size="1333333.000000" lengthAdjust="spacingAndGlyphs"
text-anchor="middle" opacity="0">C1</text>
<g class="stroked-text"><desc>C1</desc>
<path d="M9433333 62027142
L9385714 62074761
L9242857 62122380
L9147619 62122380
L9004761 62074761
L8909523 61979523
L8861904 61884285
L8814285 61693809
L8814285 61550952
L8861904 61360476
L8909523 61265238
L9004761 61170000
L9147619 61122380
L9242857 61122380
L9385714 61170000
L9433333 61217619
" />
<path d="M10385714 62122380
L9814285 62122380
" />
<path d="M10100000 62122380
L10100000 61122380
L10004761 61265238
L9909523 61360476
L9814285 61408095
" />
</g><text x="13312500.000000" y="60622500.000000"
textLength="2195000.000000" font-size="1333333.000000" lengthAdjust="spacingAndGlyphs"
text-anchor="middle" opacity="0">U2</text>
<g class="stroked-text"><desc>U2</desc>
<path d="M12550595 59574880
L12550595 60384404
L12598214 60479642
L12645833 60527261
L12741071 60574880
L12931547 60574880
L13026785 60527261
L13074404 60479642
L13122023 60384404
L13122023 59574880
" />
<path d="M13550595 59670119
L13598214 59622500
L13693452 59574880
L13931547 59574880
L14026785 59622500
L14074404 59670119
L14122023 59765357
L14122023 59860595
L14074404 60003452
L13502976 60574880
L14122023 60574880
" />
</g><text x="53415000.000000" y="12005000.000000"
textLength="1909286.000000" font-size="1333333.000000" lengthAdjust="spacingAndGlyphs"
text-anchor="middle" opacity="0">J5</text>
<g class="stroked-text"><desc>J5</desc>
<path d="M53081666 10957380
L53081666 11671666
L53034047 11814523
L52938809 11909761
L52795952 11957380
L52700714 11957380
" />
<path d="M54034047 10957380
L53557857 10957380
L53510238 11433571
L53557857 11385952
L53653095 11338333
L53891190 11338333
L53986428 11385952
L54034047 11433571
L54081666 11528809
L54081666 11766904
L54034047 11862142
L53986428 11909761
L53891190 11957380
L53653095 11957380
L53557857 11909761
L53510238 11862142
" />
</g><text x="9600000.000000" y="72965000.000000"
textLength="2147381.000000" font-size="1333333.000000" lengthAdjust="spacingAndGlyphs"
text-anchor="middle" opacity="0">C2</text>
<g class="stroked-text"><desc>C2</desc>
<path d="M9433333 72822142
L9385714 72869761
L9242857 72917380
L9147619 72917380
L9004761 72869761
L8909523 72774523
L8861904 72679285
L8814285 72488809
L8814285 72345952
L8861904 72155476
L8909523 72060238
L9004761 71965000
L9147619 71917380
L9242857 71917380
L9385714 71965000
L9433333 72012619
" />
<path d="M9814285 72012619
L9861904 71965000
L9957142 71917380
L10195238 71917380
L10290476 71965000
L10338095 72012619
L10385714 72107857
L10385714 72203095
L10338095 72345952
L9766666 72917380
L10385714 72917380
" />
</g><text x="14045000.000000" y="31412500.000000"
textLength="2195000.000000" font-size="1333333.000000" lengthAdjust="spacingAndGlyphs"
text-anchor="middle" opacity="0">U8</text>
<g class="stroked-text"><desc>U8</desc>
<path d="M13283095 30364880
L13283095 31174404
L13330714 31269642
L13378333 31317261
L13473571 31364880
L13664047 31364880
L13759285 31317261
L13806904 31269642
L13854523 31174404
L13854523 30364880
" />
<path d="M14473571 30793452
L14378333 30745833
L14330714 30698214
L14283095 30602976
L14283095 30555357
L14330714 30460119
L14378333 30412500
L14473571 30364880
L14664047 30364880
L14759285 30412500
L14806904 30460119
L14854523 30555357
L14854523 30602976
L14806904 30698214
L14759285 30745833
L14664047 30793452
L14473571 30793452
L14378333 30841071
L14330714 30888690
L14283095 30983928
L14283095 31174404
L14330714 31269642
L14378333 31317261
L14473571 31364880
L14664047 31364880
L14759285 31317261
L14806904 31269642
L14854523 31174404
L14854523 30983928
L14806904 30888690
L14759285 30841071
L14664047 30793452
" />
</g><text x="52145000.000000" y="31365000.000000"
textLength="2195000.000000" font-size="1333333.000000" lengthAdjust="spacingAndGlyphs"
text-anchor="middle" opacity="0">U6</text>
<g class="stroked-text"><desc>U6</desc>
<path d="M51383095 30317380
L51383095 31126904
L51430714 31222142
L51478333 31269761
L51573571 31317380
L51764047 31317380
L51859285 31269761
L51906904 31222142
L51954523 31126904
L51954523 30317380
" />
<path d="M52859285 30317380
L52668809 30317380
L52573571 30365000
L52525952 30412619
L52430714 30555476
L52383095 30745952
L52383095 31126904
L52430714 31222142
L52478333 31269761
L52573571 31317380
L52764047 31317380
L52859285 31269761
L52906904 31222142
L52954523 31126904
L52954523 30888809
L52906904 30793571
L52859285 30745952
L52764047 30698333
L52573571 30698333
L52478333 30745952
L52430714 30793571
L52383095 30888809
" />
</g><text x="25475000.000000" y="59405000.000000"
textLength="2195000.000000" font-size="1333333.000000" lengthAdjust="spacingAndGlyphs"
text-anchor="middle" opacity="0">U1</text>
<g class="stroked-text"><desc>U1</desc>
<path d="M24713095 58357380
L24713095 59166904
L24760714 59262142
L24808333 59309761
L24903571 59357380
L25094047 59357380
L25189285 59309761
L25236904 59262142
L25284523 59166904
L25284523 58357380
" />
<path d="M26284523 59357380
L25713095 59357380
" />
<path d="M25998809 59357380
L25998809 58357380
L25903571 58500238
L25808333 58595476
L25713095 58643095
" />
</g><text x="47065000.000000" y="62805000.000000"
textLength="2147381.000000" font-size="1333333.000000" lengthAdjust="spacingAndGlyphs"
text-anchor="middle" opacity="0">C3</text>
<g class="stroked-text"><desc>C3</desc>
<path d="M46898333 62662142
L46850714 62709761
L46707857 62757380
L46612619 62757380
L46469761 62709761
L46374523 62614523
L46326904 62519285
L46279285 62328809
L46279285 62185952
L46326904 61995476
L46374523 61900238
L46469761 61805000
L46612619 61757380
L46707857 61757380
L46850714 61805000
L46898333 61852619
" />
<path d="M47231666 61757380
L47850714 61757380
L47517380 62138333
L47660238 62138333
L47755476 62185952
L47803095 62233571
L47850714 62328809
L47850714 62566904
L47803095 62662142
L47755476 62709761
L47660238 62757380
L47374523 62757380
L47279285 62709761
L47231666 62662142
" />
</g><g transform="rotate(-90.000000 38810000.000000 38532500.000000)">
<text x="38810000.000000" y="39032500.000000"
textLength="2147381.000000" font-size="1333333.000000" lengthAdjust="spacingAndGlyphs"
text-anchor="middle" opacity="0">R8</text>
</g>
<g class="stroked-text"><desc>R8</desc>
<path d="M39262380 38699166
L38786190 39032500
" />
<path d="M39262380 39270595
L38262380 39270595
L38262380 38889642
L38310000 38794404
L38357619 38746785
L38452857 38699166
L38595714 38699166
L38690952 38746785
L38738571 38794404
L38786190 38889642
L38786190 39270595
" />
<path d="M38690952 38127738
L38643333 38222976
L38595714 38270595
L38500476 38318214
L38452857 38318214
L38357619 38270595
L38310000 38222976
L38262380 38127738
L38262380 37937261
L38310000 37842023
L38357619 37794404
L38452857 37746785
L38500476 37746785
L38595714 37794404
L38643333 37842023
L38690952 37937261
L38690952 38127738
L38738571 38222976
L38786190 38270595
L38881428 38318214
L39071904 38318214
L39167142 38270595
L39214761 38222976
L39262380 38127738
L39262380 37937261
L39214761 37842023
L39167142 37794404
L39071904 37746785
L38881428 37746785
L38786190 37794404
L38738571 37842023
L38690952 37937261
" />
</g><g transform="rotate(-90.000000 44905000.000000 67662500.000000)">
<text x="44905000.000000" y="68162500.000000"
textLength="2147381.000000" font-size="1333333.000000" lengthAdjust="spacingAndGlyphs"
text-anchor="middle" opacity="0">R5</text>
</g>
<g class="stroked-text"><desc>R5</desc>
<path d="M45357380 67829166
L44881190 68162500
" />
<path d="M45357380 68400595
L44357380 68400595
L44357380 68019642
L44405000 67924404
L44452619 67876785
L44547857 67829166
L44690714 67829166
L44785952 67876785
L44833571 67924404
L44881190 68019642
L44881190 68400595
" />
<path d="M44357380 66924404
L44357380 67400595
L44833571 67448214
L44785952 67400595
L44738333 67305357
L44738333 67067261
L44785952 66972023
L44833571 66924404
L44928809 66876785
L45166904 66876785
L45262142 66924404
L45309761 66972023
L45357380 67067261
L45357380 67305357
L45309761 67400595
L45262142 67448214
" />
</g><text x="55320000.000000" y="55820000.000000"
textLength="2147381.000000" font-size="1333333.000000" lengthAdjust="spacingAndGlyphs"
text-anchor="middle" opacity="0">R2</text>
<g class="stroked-text"><desc>R2</desc>
<path d="M55153333 55772380
L54820000 55296190
" />
<path d="M54581904 55772380
L54581904 54772380
L54962857 54772380
L55058095 54820000
L55105714 54867619
L55153333 54962857
L55153333 55105714
L55105714 55200952
L55058095 55248571
L54962857 55296190
L54581904 55296190
" />
<path d="M55534285 54867619
L55581904 54820000
L55677142 54772380
L55915238 54772380
L56010476 54820000
L56058095 54867619
L56105714 54962857
L56105714 55058095
L56058095 55200952
L55486666 55772380
L56105714 55772380
" />
</g></g>
<g style="fill:#F2EDA1; fill-opacity:0.0; 
stroke:#F2EDA1; stroke-width:120000.000000; stroke-opacity:1; 
stroke-linecap:round; stroke-linejoin:round;">
<path d="M21645000 93205000
L31765000 93205000
" />
<path d="M21405000 93205000
L21805000 93205000
" />
<path d="M21405000 92565000
L21405000 93205000
" />
<path d="M31765000 83645000
L31765000 92765000
" />
<path d="M21645000 83645000
L31765000 83645000
" />
<path d="M21645000 92765000
L21645000 93205000
" />
<path d="M31765000 92765000
L31765000 93205000
" />
<path d="M21645000 83645000
L21645000 92765000
" />
<circle cx="29205000.000000" cy="87705000.000000" r="2180000.000000" /> 
<circle cx="24205000.000000" cy="87705000.000000" r="2180000.000000" /> 
<path d="M34345000 93205000
L44465000 93205000
" />
<path d="M34105000 93205000
L34505000 93205000
" />
<path d="M34105000 92565000
L34105000 93205000
" />
<path d="M44465000 83645000
L44465000 92765000
" />
<path d="M34345000 83645000
L44465000 83645000
" />
<path d="M34345000 92765000
L34345000 93205000
" />
<path d="M44465000 92765000
L44465000 93205000
" />
<path d="M34345000 83645000
L34345000 92765000
" />
<circle cx="41905000.000000" cy="87705000.000000" r="2180000.000000" /> 
<circle cx="36905000.000000" cy="87705000.000000" r="2180000.000000" /> 
<path d="M44545000 925000
L34425000 925000
" />
<path d="M44785000 925000
L44385000 925000
" />
<path d="M44785000 1565000
L44785000 925000
" />
<path d="M34425000 10485000
L34425000 1365000
" />
<path d="M44545000 10485000
L34425000 10485000
" />
<path d="M44545000 1365000
L44545000 925000
" />
<path d="M34425000 1365000
L34425000 925000
" />
<path d="M44545000 10485000
L44545000 1365000
" />
<circle cx="36985000.000000" cy="6425000.000000" r="2180000.000000" /> 
<circle cx="41985000.000000" cy="6425000.000000" r="2180000.000000" /> 
<path d="M31845000 925000
L21725000 925000
" />
<path d="M32085000 925000
L31685000 925000
" />
<path d="M32085000 1565000
L32085000 925000
" />
<path d="M21725000 10485000
L21725000 1365000
" />
<path d="M31845000 10485000
L21725000 10485000
" />
<path d="M31845000 1365000
L31845000 925000
" />
<path d="M21725000 1365000
L21725000 925000
" />
<path d="M31845000 10485000
L31845000 1365000
" />
<circle cx="24285000.000000" cy="6425000.000000" r="2180000.000000" /> 
<circle cx="29285000.000000" cy="6425000.000000" r="2180000.000000" /> 
<path d="M59700000 85230000
L64900000 85230000
" />
<path d="M62300000 59710000
L64900000 59710000
" />
<path d="M62300000 62310000
L62300000 59710000
" />
<path d="M59700000 59710000
L61030000 59710000
" />
<path d="M59700000 62310000
L59700000 85230000
" />
<path d="M64900000 59710000
L64900000 85230000
" />
<path d="M59700000 61040000
L59700000 59710000
" />
<path d="M59700000 62310000
L62300000 62310000
" />
<path d="M1950000 83955000
L7150000 83955000
" />
<path d="M4550000 58435000
L7150000 58435000
" />
<path d="M4550000 61035000
L4550000 58435000
" />
<path d="M1950000 58435000
L3280000 58435000
" />
<path d="M1950000 61035000
L1950000 83955000
" />
<path d="M7150000 58435000
L7150000 83955000
" />
<path d="M1950000 59765000
L1950000 58435000
" />
<path d="M1950000 61035000
L4550000 61035000
" />
<path d="M35635000 50875000
L35635000 55955000
" />
<path d="M43255000 61035000
L45795000 58495000
" />
<path d="M35635000 50875000
L35635000 53415000
" />
<path d="M43255000 55955000
L40715000 58495000
" />
<path d="M40715000 58495000
L43255000 61035000
" />
<path d="M45795000 58495000
L43255000 55955000
" />
<path d="M35635000 50875000
L45795000 50875000
" />
<path d="M45795000 50875000
L45795000 73735000
" />
<path d="M45795000 73735000
L35635000 73735000
" />
<path d="M35635000 73735000
L35635000 50875000
" />
<circle cx="38175000.000000" cy="66115000.000000" r="2540000.000000" /> 
<circle cx="22935000.000000" cy="36905000.000000" r="2540000.000000" /> 
<path d="M20395000 21665000
L30555000 21665000
" />
<path d="M30555000 21665000
L30555000 44525000
" />
<path d="M30555000 44525000
L20395000 44525000
" />
<path d="M20395000 44525000
L20395000 21665000
" />
<path d="M30555000 29285000
L28015000 26745000
" />
<path d="M25475000 29285000
L28015000 31825000
" />
<path d="M28015000 26745000
L25475000 29285000
" />
<path d="M20395000 21665000
L20395000 24205000
" />
<path d="M28015000 31825000
L30555000 29285000
" />
<path d="M20395000 21665000
L20395000 26745000
" />
<circle cx="22935000.000000" cy="66115000.000000" r="2540000.000000" /> 
<path d="M20395000 50875000
L30555000 50875000
" />
<path d="M30555000 50875000
L30555000 73735000
" />
<path d="M30555000 73735000
L20395000 73735000
" />
<path d="M20395000 73735000
L20395000 50875000
" />
<path d="M30555000 58495000
L28015000 55955000
" />
<path d="M25475000 58495000
L28015000 61035000
" />
<path d="M28015000 55955000
L25475000 58495000
" />
<path d="M20395000 50875000
L20395000 53415000
" />
<path d="M28015000 61035000
L30555000 58495000
" />
<path d="M20395000 50875000
L20395000 55955000
" />
<path d="M35635000 21665000
L35635000 26745000
" />
<path d="M43255000 31825000
L45795000 29285000
" />
<path d="M35635000 21665000
L35635000 24205000
" />
<path d="M43255000 26745000
L40715000 29285000
" />
<path d="M40715000 29285000
L43255000 31825000
" />
<path d="M45795000 29285000
L43255000 26745000
" />
<path d="M35635000 21665000
L45795000 21665000
" />
<path d="M45795000 21665000
L45795000 44525000
" />
<path d="M45795000 44525000
L35635000 44525000
" />
<path d="M35635000 44525000
L35635000 21665000
" />
<circle cx="38175000.000000" cy="36905000.000000" r="2540000.000000" /> 
<path d="M27280000 67515436
L27280000 67969564
" />
<path d="M28750000 67515436
L28750000 67969564
" />
<path d="M51917936 52880000
L52372064 52880000
" />
<path d="M51917936 51410000
L52372064 51410000
" />
<path d="M24740000 38305436
L24740000 38759564
" />
<path d="M26210000 38305436
L26210000 38759564
" />
<path d="M40715000 35655000
L42665000 35655000
" />
<path d="M40715000 30535000
L42665000 30535000
" />
<path d="M40715000 30535000
L37265000 30535000
" />
<path d="M40715000 35655000
L38765000 35655000
" />
<path d="M57095000 87175000
L57095000 90775000
" />
<path d="M49735000 87175000
L49735000 90775000
" />
<path d="M51615000 85295000
L55215000 85295000
" />
<path d="M51615000 92655000
L55215000 92655000
" />
<path d="M40715000 64865000
L42665000 64865000
" />
<path d="M40715000 59745000
L37265000 59745000
" />
<path d="M40715000 64865000
L38765000 64865000
" />
<path d="M40715000 59745000
L42665000 59745000
" />
<path d="M16455000 87175000
L16455000 90775000
" />
<path d="M9095000 87175000
L9095000 90775000
" />
<path d="M10975000 92655000
L14575000 92655000
" />
<path d="M10975000 85295000
L14575000 85295000
" />
<path d="M41450000 67435436
L41450000 67889564
" />
<path d="M39980000 67435436
L39980000 67889564
" />
<path d="M8865000 35101248
L8865000 35623752
" />
<path d="M10335000 35101248
L10335000 35623752
" />
<path d="M25475000 35655000
L27425000 35655000
" />
<path d="M25475000 30535000
L22025000 30535000
" />
<path d="M25475000 35655000
L23525000 35655000
" />
<path d="M25475000 30535000
L27425000 30535000
" />
<path d="M46330000 35053748
L46330000 35576252
" />
<path d="M47800000 35053748
L47800000 35576252
" />
<path d="M47800000 40656252
L47800000 40133748
" />
<path d="M46330000 40656252
L46330000 40133748
" />
<path d="M10975000 8835000
L14575000 8835000
" />
<path d="M9095000 3355000
L9095000 6955000
" />
<path d="M16455000 3355000
L16455000 6955000
" />
<path d="M10975000 1475000
L14575000 1475000
" />
<path d="M46330000 70186252
L46330000 69663748
" />
<path d="M47800000 70186252
L47800000 69663748
" />
<path d="M56002500 61552500
L56002500 73322500
" />
<path d="M50662500 61352500
L49462500 61352500
" />
<path d="M49462500 61352500
L49462500 62552500
" />
<path d="M49662500 61552500
L49662500 73322500
" />
<path d="M56002500 61552500
L49662500 61552500
" />
<path d="M56002500 73322500
L49662500 73322500
" />
<path d="M43990000 38225436
L43990000 38679564
" />
<path d="M42520000 38225436
L42520000 38679564
" />
<path d="M10335000 40656252
L10335000 40133748
" />
<path d="M8865000 40656252
L8865000 40133748
" />
<path d="M26210000 67515436
L26210000 67969564
" />
<path d="M24740000 67515436
L24740000 67969564
" />
<path d="M27280000 38305436
L27280000 38759564
" />
<path d="M28750000 38305436
L28750000 38759564
" />
<path d="M8865000 64583748
L8865000 65106252
" />
<path d="M10335000 64583748
L10335000 65106252
" />
<path d="M17902500 61552500
L17902500 73322500
" />
<path d="M12562500 61352500
L11362500 61352500
" />
<path d="M17902500 61552500
L11562500 61552500
" />
<path d="M17902500 73322500
L11562500 73322500
" />
<path d="M11362500 61352500
L11362500 62552500
" />
<path d="M11562500 61552500
L11562500 73322500
" />
<path d="M51615000 8835000
L55215000 8835000
" />
<path d="M49735000 3355000
L49735000 6955000
" />
<path d="M51615000 1475000
L55215000 1475000
" />
<path d="M57095000 3355000
L57095000 6955000
" />
<path d="M10335000 70186252
L10335000 69663748
" />
<path d="M8865000 70186252
L8865000 69663748
" />
<path d="M17902500 32342500
L17902500 44112500
" />
<path d="M11562500 32342500
L11562500 44112500
" />
<path d="M12562500 32142500
L11362500 32142500
" />
<path d="M17902500 32342500
L11562500 32342500
" />
<path d="M11362500 32142500
L11362500 33342500
" />
<path d="M17902500 44112500
L11562500 44112500
" />
<path d="M48990000 32295000
L48990000 44065000
" />
<path d="M48790000 32095000
L48790000 33295000
" />
<path d="M55330000 32295000
L55330000 44065000
" />
<path d="M55330000 32295000
L48990000 32295000
" />
<path d="M49990000 32095000
L48790000 32095000
" />
<path d="M55330000 44065000
L48990000 44065000
" />
<path d="M25475000 64865000
L23525000 64865000
" />
<path d="M25475000 59745000
L27425000 59745000
" />
<path d="M25475000 59745000
L22025000 59745000
" />
<path d="M25475000 64865000
L27425000 64865000
" />
<path d="M47800000 64583748
L47800000 65106252
" />
<path d="M46330000 64583748
L46330000 65106252
" />
<path d="M41450000 38305436
L41450000 38759564
" />
<path d="M39980000 38305436
L39980000 38759564
" />
<path d="M42520000 67435436
L42520000 67889564
" />
<path d="M43990000 67435436
L43990000 67889564
" />
<path d="M51917936 56055000
L52372064 56055000
" />
<path d="M51917936 54585000
L52372064 54585000
" />
<g >
</g>
<g >
</g>
<g >
</g>
<g >
</g>
<g >
</g>
<g >
</g>
<g >
</g>
<g >
</g>
<g >
</g>
<g >
</g>
<g >
</g>
<g >
</g>
<g >
</g>
<g >
</g>
<g >
</g>
<g >
</g>
<g >
</g>
<g >
</g>
<g >
</g>
<g >
</g>
<g >
</g>
<g >
</g>
<g >
</g>
<g >
</g>
<g >
</g>
<g >
</g>
<g >
</g>
<g >
</g>
<g >
</g>
<g >
</g>
<g >
</g>
<g >
</g>
<g >
</g>
<g >
</g>
<g >
</g>
<g >
</g>
<g >
</g>
<g >
</g>
<g >
</g>
<g >
</g>
<g >
</g>
<g >
</g>
<g >
</g>
</g>
<g style="fill:#000000; fill-opacity:0.0; 
stroke:#000000; stroke-width:120000.000000; stroke-opacity:1; 
stroke-linecap:round; stroke-linejoin:round;">
</g>
<g style="fill:#D0D2CD; fill-opacity:0.0; 
stroke:#D0D2CD; stroke-width:120000.000000; stroke-opacity:1; 
stroke-linecap:round; stroke-linejoin:round;">
</g>
<g style="fill:#D0D2CD; fill-opacity:0.0; 
stroke:#D0D2CD; stroke-width:50000.000000; stroke-opacity:1; 
stroke-linecap:round; stroke-linejoin:round;">
<path d="M75000 8457000
L75000 85673000
" />
<path d="M66115000 85673000
L66115000 8457000
" />
<path d="M837000 86435000
L4774000 86435000
" />
<path d="M9219000 94055000
L56971000 94055000
" />
<path d="M8457000 90118000
L8457000 93293000
" />
<path d="M61416000 86435000
L65353000 86435000
" />
<path d="M4774000 7695000
L837000 7695000
" />
<path d="M65353000.000000 86434999.999150 A761964.000000 761964.000000 0.0 0 0 66114999.999150 85673000.000000" />
<path d="M56971000 75000
L9219000 75000
" />
<path d="M837000.000000 7695000.000804 A762035.000000 762035.000000 0.0 0 0 75000.000804 8457000.000000" />
<path d="M56971000.000000 94054999.999999 A762001.000000 762001.000000 0.0 0 0 57732999.999999 93293000.000000" />
<path d="M4774000.000000 7694999.999814 A3682963.000000 3682963.000000 0.0 0 0 8456999.999814 4012000.000000" />
<path d="M66114999.999852 8457000.000000 A762015.000000 762015.000000 0.0 0 0 65353000.000000 7695000.000148" />
<path d="M65353000 7695000
L61416000 7695000
" />
<path d="M9219000.000000 75000.000804 A762035.000000 762035.000000 0.0 0 0 8457000.000804 837000.000000" />
<path d="M8457000.000000 90118000.000000 A3683001.000000 3683001.000000 0.0 0 0 4774000.000000 86435000.000000" />
<path d="M61416000.000000 86435000.000000 A3683001.000000 3683001.000000 0.0 0 0 57733000.000000 90118000.000000" />
<path d="M57733000 93293000
L57733000 90118000
" />
<path d="M57733000.000035 4012000.000000 A3682984.000000 3682984.000000 0.0 0 0 61416000.000000 7694999.999965" />
<path d="M75000.000016 85673000.000000 A762005.000000 762005.000000 0.0 0 0 837000.000000 86434999.999984" />
<path d="M57733000 4012000
L57733000 837000
" />
<path d="M8457000 837000
L8457000 4012000
" />
<path d="M8457000.000001 93293000.000000 A762001.000000 762001.000000 0.0 0 0 9219000.000000 94054999.999999" />
<path d="M57732999.999852 837000.000000 A762015.000000 762015.000000 0.0 0 0 56971000.000000 75000.000148" />
<g >
</g>
<g >
</g>
<g >
</g>
<g >
</g>
<g >
</g>
<g >
</g>
<g >
</g>
<g >
</g>
<g >
</g>
<g >
</g>
<g >
</g>
<g >
</g>
<g >
</g>
<g >
</g>
<g >
</g>
<g >
</g>
<g >
</g>
<g >
</g>
<g >
</g>
<g >
</g>
<g >
</g>
<g >
</g>
<g >
</g>
<g >
</g>
<g >
</g>
<g >
</g>
<g >
</g>
<g >
</g>
<g >
</g>
<g >
</g>
<g >
</g>
<g >
</g>
<g >
</g>
<g >
</g>
<g >
</g>
<g >
</g>
<g >
</g>
<g >
</g>
<g >
</g>
<g >
</g>
<g >
</g>
<g >
</g>
<g >
</g>
</g> 
</svg>
