G04 #@! TF.GenerationSoftware,KiCad,Pcbnew,(6.0.0)*
G04 #@! TF.CreationDate,2022-08-16T09:33:42-05:00*
G04 #@! TF.ProjectId,mayfly-atlas-shield,6d617966-6c79-42d6-9174-6c61732d7368,rev?*
G04 #@! TF.SameCoordinates,Original*
G04 #@! TF.FileFunction,Soldermask,Top*
G04 #@! TF.FilePolarity,Negative*
%FSLAX46Y46*%
G04 Gerber Fmt 4.6, Leading zero omitted, Abs format (unit mm)*
G04 Created by KiCad (PCBNEW (6.0.0)) date 2022-08-16 09:33:42*
%MOMM*%
%LPD*%
G01*
G04 APERTURE LIST*
G04 Aperture macros list*
%AMRoundRect*
0 Rectangle with rounded corners*
0 $1 Rounding radius*
0 $2 $3 $4 $5 $6 $7 $8 $9 X,Y pos of 4 corners*
0 Add a 4 corners polygon primitive as box body*
4,1,4,$2,$3,$4,$5,$6,$7,$8,$9,$2,$3,0*
0 Add four circle primitives for the rounded corners*
1,1,$1+$1,$2,$3*
1,1,$1+$1,$4,$5*
1,1,$1+$1,$6,$7*
1,1,$1+$1,$8,$9*
0 Add four rect primitives between the rounded corners*
20,1,$1+$1,$2,$3,$4,$5,0*
20,1,$1+$1,$4,$5,$6,$7,0*
20,1,$1+$1,$6,$7,$8,$9,0*
20,1,$1+$1,$8,$9,$2,$3,0*%
G04 Aperture macros list end*
%ADD10RoundRect,0.250000X-0.450000X0.262500X-0.450000X-0.262500X0.450000X-0.262500X0.450000X0.262500X0*%
%ADD11RoundRect,0.250000X-0.262500X-0.450000X0.262500X-0.450000X0.262500X0.450000X-0.262500X0.450000X0*%
%ADD12C,1.600000*%
%ADD13R,1.600000X1.600000*%
%ADD14RoundRect,0.150000X-0.825000X-0.150000X0.825000X-0.150000X0.825000X0.150000X-0.825000X0.150000X0*%
%ADD15C,2.050000*%
%ADD16C,2.250000*%
%ADD17C,2.600000*%
%ADD18R,2.600000X2.600000*%
%ADD19RoundRect,0.250000X-0.475000X0.250000X-0.475000X-0.250000X0.475000X-0.250000X0.475000X0.250000X0*%
%ADD20RoundRect,0.250000X0.475000X-0.250000X0.475000X0.250000X-0.475000X0.250000X-0.475000X-0.250000X0*%
%ADD21R,2.000000X1.500000*%
%ADD22O,2.000000X1.500000*%
G04 APERTURE END LIST*
D10*
X110490000Y-136605000D03*
X110490000Y-138430000D03*
D11*
X133707500Y-121920000D03*
X135532500Y-121920000D03*
D10*
X107950000Y-107395000D03*
X107950000Y-109220000D03*
D12*
X125730000Y-140970000D03*
X123190000Y-140970000D03*
X120650000Y-140970000D03*
D13*
X120650000Y-123190000D03*
D12*
X123190000Y-123190000D03*
X125730000Y-123190000D03*
D14*
X120715000Y-100965000D03*
X120715000Y-102235000D03*
X120715000Y-103505000D03*
X120715000Y-104775000D03*
X125665000Y-104775000D03*
X125665000Y-103505000D03*
X125665000Y-102235000D03*
X125665000Y-100965000D03*
D15*
X135890000Y-158750000D03*
D16*
X133350000Y-156210000D03*
X138430000Y-156210000D03*
X133350000Y-161290000D03*
X138430000Y-161290000D03*
D14*
X120715000Y-130175000D03*
X120715000Y-131445000D03*
X120715000Y-132715000D03*
X120715000Y-133985000D03*
X125665000Y-133985000D03*
X125665000Y-132715000D03*
X125665000Y-131445000D03*
X125665000Y-130175000D03*
D17*
X106680000Y-157480000D03*
D18*
X111680000Y-157480000D03*
D15*
X95250000Y-158750000D03*
D16*
X92710000Y-161290000D03*
X92710000Y-156210000D03*
X97790000Y-156210000D03*
X97790000Y-161290000D03*
D12*
X110490000Y-93980000D03*
X107950000Y-93980000D03*
D13*
X105410000Y-93980000D03*
D12*
X105410000Y-111760000D03*
X107950000Y-111760000D03*
X110490000Y-111760000D03*
D10*
X123190000Y-136525000D03*
X123190000Y-138350000D03*
D19*
X92075000Y-104187500D03*
X92075000Y-106087500D03*
D14*
X105475000Y-100965000D03*
X105475000Y-102235000D03*
X105475000Y-103505000D03*
X105475000Y-104775000D03*
X110425000Y-104775000D03*
X110425000Y-103505000D03*
X110425000Y-102235000D03*
X110425000Y-100965000D03*
D19*
X129540000Y-104140000D03*
X129540000Y-106040000D03*
D20*
X129540000Y-111120000D03*
X129540000Y-109220000D03*
D15*
X95250000Y-74930000D03*
D16*
X92710000Y-77470000D03*
X97790000Y-77470000D03*
X97790000Y-72390000D03*
X92710000Y-72390000D03*
D20*
X129540000Y-140650000D03*
X129540000Y-138750000D03*
D21*
X133387500Y-133397500D03*
D22*
X133387500Y-135937500D03*
X133387500Y-138477500D03*
X133387500Y-141017500D03*
D10*
X125730000Y-107315000D03*
X125730000Y-109140000D03*
D20*
X92075000Y-111120000D03*
X92075000Y-109220000D03*
D10*
X107950000Y-136605000D03*
X107950000Y-138430000D03*
X110490000Y-107395000D03*
X110490000Y-109220000D03*
D12*
X110490000Y-123190000D03*
X107950000Y-123190000D03*
D13*
X105410000Y-123190000D03*
D12*
X105410000Y-140970000D03*
X107950000Y-140970000D03*
X110490000Y-140970000D03*
D19*
X92075000Y-133670000D03*
X92075000Y-135570000D03*
D21*
X95287500Y-133397500D03*
D22*
X95287500Y-135937500D03*
X95287500Y-138477500D03*
X95287500Y-141017500D03*
D15*
X135890000Y-74930000D03*
D16*
X133350000Y-77470000D03*
X133350000Y-72390000D03*
X138430000Y-72390000D03*
X138430000Y-77470000D03*
D17*
X119380000Y-157480000D03*
D18*
X124380000Y-157480000D03*
D20*
X92075000Y-140650000D03*
X92075000Y-138750000D03*
D21*
X95287500Y-104187500D03*
D22*
X95287500Y-106727500D03*
X95287500Y-109267500D03*
X95287500Y-111807500D03*
D17*
X124460000Y-76200000D03*
D18*
X119460000Y-76200000D03*
D12*
X125730000Y-93980000D03*
X123190000Y-93980000D03*
D13*
X120650000Y-93980000D03*
D12*
X120650000Y-111760000D03*
X123190000Y-111760000D03*
X125730000Y-111760000D03*
D21*
X132715000Y-104140000D03*
D22*
X132715000Y-106680000D03*
X132715000Y-109220000D03*
X132715000Y-111760000D03*
D17*
X111760000Y-76200000D03*
D18*
X106760000Y-76200000D03*
D14*
X105475000Y-130175000D03*
X105475000Y-131445000D03*
X105475000Y-132715000D03*
X105475000Y-133985000D03*
X110425000Y-133985000D03*
X110425000Y-132715000D03*
X110425000Y-131445000D03*
X110425000Y-130175000D03*
D12*
X142240000Y-127000000D03*
X142240000Y-129540000D03*
X142240000Y-132080000D03*
X142240000Y-134620000D03*
X142240000Y-137160000D03*
X142240000Y-139700000D03*
X142240000Y-142240000D03*
X142240000Y-144780000D03*
X142240000Y-147320000D03*
X142240000Y-149860000D03*
X144780000Y-149860000D03*
X144780000Y-147320000D03*
X144780000Y-144780000D03*
X144780000Y-142240000D03*
X144780000Y-139700000D03*
X144780000Y-137160000D03*
X144780000Y-134620000D03*
X144780000Y-132080000D03*
X144780000Y-129540000D03*
X144780000Y-127000000D03*
D19*
X129540000Y-133670000D03*
X129540000Y-135570000D03*
D10*
X123190000Y-107395000D03*
X123190000Y-109220000D03*
X125730000Y-136525000D03*
X125730000Y-138350000D03*
D11*
X133707500Y-125095000D03*
X135532500Y-125095000D03*
D12*
X86360000Y-127000000D03*
X86360000Y-129540000D03*
X86360000Y-132080000D03*
X86360000Y-134620000D03*
X86360000Y-137160000D03*
X86360000Y-139700000D03*
X86360000Y-142240000D03*
X86360000Y-144780000D03*
X86360000Y-147320000D03*
X86360000Y-149860000D03*
X88900000Y-149860000D03*
X88900000Y-147320000D03*
X88900000Y-144780000D03*
X88900000Y-142240000D03*
X88900000Y-139700000D03*
X88900000Y-137160000D03*
X88900000Y-134620000D03*
X88900000Y-132080000D03*
X88900000Y-129540000D03*
X88900000Y-127000000D03*
M02*
