%FSLAX45Y45*%
G04 Gerber Fmt 4.5, Leading zero omitted, Abs format (unit mm)*
G04 Created by KiCad (PCBNEW (6.0.0)) date 2022-08-16 09:44:08*
%MOMM*%
%LPD*%
G01*
G04 APERTURE LIST*
%TA.AperFunction,Profile*%
%ADD10C,0.050000*%
%TD*%
%ADD11C,0.200000*%
G04 APERTURE END LIST*
D10*
X8255000Y-7823200D02*
X8255000Y-15544800D01*
X14859000Y-15544800D02*
X14859000Y-7823200D01*
X8331200Y-15621000D02*
X8724900Y-15621000D01*
X9169400Y-16383000D02*
X13944600Y-16383000D01*
X9093200Y-15989300D02*
X9093200Y-16306800D01*
X14389100Y-15621000D02*
X14782800Y-15621000D01*
X8724900Y-7747000D02*
X8331200Y-7747000D01*
X14782800Y-15621000D02*
G75*
G03*
X14859000Y-15544800I4J76196D01*
G01*
X13944600Y-6985000D02*
X9169400Y-6985000D01*
X8331200Y-7747000D02*
G75*
G03*
X8255000Y-7823200I4J-76204D01*
G01*
X13944600Y-16383000D02*
G75*
G03*
X14020800Y-16306800I0J76200D01*
G01*
X8724900Y-7747000D02*
G75*
G03*
X9093200Y-7378700I4J368296D01*
G01*
X14859000Y-7823200D02*
G75*
G03*
X14782800Y-7747000I-76202J-2D01*
G01*
X14782800Y-7747000D02*
X14389100Y-7747000D01*
X9169400Y-6985000D02*
G75*
G03*
X9093200Y-7061200I4J-76204D01*
G01*
X9093200Y-15989300D02*
G75*
G03*
X8724900Y-15621000I-368300J0D01*
G01*
X14389100Y-15621000D02*
G75*
G03*
X14020800Y-15989300I0J-368300D01*
G01*
X14020800Y-16306800D02*
X14020800Y-15989300D01*
X14020800Y-7378700D02*
G75*
G03*
X14389100Y-7747000I368298J-2D01*
G01*
X8255000Y-15544800D02*
G75*
G03*
X8331200Y-15621000I76201J1D01*
G01*
X14020800Y-7378700D02*
X14020800Y-7061200D01*
X9093200Y-7061200D02*
X9093200Y-7378700D01*
X9093200Y-16306800D02*
G75*
G03*
X9169400Y-16383000I76200J0D01*
G01*
X14020800Y-7061200D02*
G75*
G03*
X13944600Y-6985000I-76202J-2D01*
G01*
D11*
X8510119Y-16695976D02*
X8510119Y-16495976D01*
X8557738Y-16495976D01*
X8586310Y-16505500D01*
X8605357Y-16524548D01*
X8614881Y-16543595D01*
X8624405Y-16581690D01*
X8624405Y-16610262D01*
X8614881Y-16648357D01*
X8605357Y-16667405D01*
X8586310Y-16686452D01*
X8557738Y-16695976D01*
X8510119Y-16695976D01*
X8710119Y-16695976D02*
X8710119Y-16562643D01*
X8710119Y-16600738D02*
X8719643Y-16581690D01*
X8729167Y-16572167D01*
X8748214Y-16562643D01*
X8767262Y-16562643D01*
X8833929Y-16695976D02*
X8833929Y-16562643D01*
X8833929Y-16495976D02*
X8824405Y-16505500D01*
X8833929Y-16515024D01*
X8843452Y-16505500D01*
X8833929Y-16495976D01*
X8833929Y-16515024D01*
X8957738Y-16695976D02*
X8938690Y-16686452D01*
X8929167Y-16667405D01*
X8929167Y-16495976D01*
X9062500Y-16695976D02*
X9043452Y-16686452D01*
X9033929Y-16667405D01*
X9033929Y-16495976D01*
X9291071Y-16695976D02*
X9291071Y-16495976D01*
X9357738Y-16638833D01*
X9424405Y-16495976D01*
X9424405Y-16695976D01*
X9605357Y-16695976D02*
X9605357Y-16591214D01*
X9595833Y-16572167D01*
X9576786Y-16562643D01*
X9538690Y-16562643D01*
X9519643Y-16572167D01*
X9605357Y-16686452D02*
X9586310Y-16695976D01*
X9538690Y-16695976D01*
X9519643Y-16686452D01*
X9510119Y-16667405D01*
X9510119Y-16648357D01*
X9519643Y-16629309D01*
X9538690Y-16619786D01*
X9586310Y-16619786D01*
X9605357Y-16610262D01*
X9700595Y-16562643D02*
X9700595Y-16762643D01*
X9700595Y-16572167D02*
X9719643Y-16562643D01*
X9757738Y-16562643D01*
X9776786Y-16572167D01*
X9786310Y-16581690D01*
X9795833Y-16600738D01*
X9795833Y-16657881D01*
X9786310Y-16676928D01*
X9776786Y-16686452D01*
X9757738Y-16695976D01*
X9719643Y-16695976D01*
X9700595Y-16686452D01*
X9881548Y-16676928D02*
X9891071Y-16686452D01*
X9881548Y-16695976D01*
X9872024Y-16686452D01*
X9881548Y-16676928D01*
X9881548Y-16695976D01*
X9881548Y-16572167D02*
X9891071Y-16581690D01*
X9881548Y-16591214D01*
X9872024Y-16581690D01*
X9881548Y-16572167D01*
X9881548Y-16591214D01*
M02*
