G04 #@! TF.GenerationSoftware,KiCad,Pcbnew,(6.0.0)*
G04 #@! TF.CreationDate,2022-08-16T09:33:42-05:00*
G04 #@! TF.ProjectId,mayfly-atlas-shield,6d617966-6c79-42d6-9174-6c61732d7368,rev?*
G04 #@! TF.SameCoordinates,Original*
G04 #@! TF.FileFunction,Profile,NP*
%FSLAX46Y46*%
G04 Gerber Fmt 4.6, Leading zero omitted, Abs format (unit mm)*
G04 Created by KiCad (PCBNEW (6.0.0)) date 2022-08-16 09:33:42*
%MOMM*%
%LPD*%
G01*
G04 APERTURE LIST*
G04 #@! TA.AperFunction,Profile*
%ADD10C,0.050000*%
G04 #@! TD*
G04 APERTURE END LIST*
D10*
X82550000Y-78232000D02*
X82550000Y-155448000D01*
X148590000Y-155448000D02*
X148590000Y-78232000D01*
X83312000Y-156210000D02*
X87249000Y-156210000D01*
X91694000Y-163830000D02*
X139446000Y-163830000D01*
X90932000Y-159893000D02*
X90932000Y-163068000D01*
X143891000Y-156210000D02*
X147828000Y-156210000D01*
X87249000Y-77470000D02*
X83312000Y-77470000D01*
X147828000Y-156210000D02*
G75*
G03*
X148590000Y-155448000I36J761964D01*
G01*
X139446000Y-69850000D02*
X91694000Y-69850000D01*
X83312000Y-77470000D02*
G75*
G03*
X82550000Y-78232000I35J-762035D01*
G01*
X139446000Y-163830000D02*
G75*
G03*
X140208000Y-163068000I-1J762001D01*
G01*
X87249000Y-77470000D02*
G75*
G03*
X90932000Y-73787000I37J3682963D01*
G01*
X148590000Y-78232000D02*
G75*
G03*
X147828000Y-77470000I-762015J-15D01*
G01*
X147828000Y-77470000D02*
X143891000Y-77470000D01*
X91694000Y-69850000D02*
G75*
G03*
X90932000Y-70612000I35J-762035D01*
G01*
X90932000Y-159893000D02*
G75*
G03*
X87249000Y-156210000I-3683001J-1D01*
G01*
X143891000Y-156210000D02*
G75*
G03*
X140208000Y-159893000I1J-3683001D01*
G01*
X140208000Y-163068000D02*
X140208000Y-159893000D01*
X140208000Y-73787000D02*
G75*
G03*
X143891000Y-77470000I3682984J-16D01*
G01*
X82550000Y-155448000D02*
G75*
G03*
X83312000Y-156210000I762005J5D01*
G01*
X140208000Y-73787000D02*
X140208000Y-70612000D01*
X90932000Y-70612000D02*
X90932000Y-73787000D01*
X90932000Y-163068000D02*
G75*
G03*
X91694000Y-163830000I762001J1D01*
G01*
X140208000Y-70612000D02*
G75*
G03*
X139446000Y-69850000I-762015J-15D01*
G01*
M02*
