G04 #@! TF.GenerationSoftware,KiCad,Pcbnew,(6.0.0)*
G04 #@! TF.CreationDate,2022-08-16T09:33:42-05:00*
G04 #@! TF.ProjectId,mayfly-atlas-shield,6d617966-6c79-42d6-9174-6c61732d7368,rev?*
G04 #@! TF.SameCoordinates,Original*
G04 #@! TF.FileFunction,Soldermask,Bot*
G04 #@! TF.FilePolarity,Negative*
%FSLAX46Y46*%
G04 Gerber Fmt 4.6, Leading zero omitted, Abs format (unit mm)*
G04 Created by KiCad (PCBNEW (6.0.0)) date 2022-08-16 09:33:42*
%MOMM*%
%LPD*%
G01*
G04 APERTURE LIST*
%ADD10C,1.600000*%
%ADD11R,1.600000X1.600000*%
%ADD12C,2.050000*%
%ADD13C,2.250000*%
%ADD14C,2.600000*%
%ADD15R,2.600000X2.600000*%
%ADD16R,2.000000X1.500000*%
%ADD17O,2.000000X1.500000*%
G04 APERTURE END LIST*
D10*
X125730000Y-140970000D03*
X123190000Y-140970000D03*
X120650000Y-140970000D03*
D11*
X120650000Y-123190000D03*
D10*
X123190000Y-123190000D03*
X125730000Y-123190000D03*
D12*
X135890000Y-158750000D03*
D13*
X133350000Y-156210000D03*
X138430000Y-156210000D03*
X133350000Y-161290000D03*
X138430000Y-161290000D03*
D14*
X106680000Y-157480000D03*
D15*
X111680000Y-157480000D03*
D12*
X95250000Y-158750000D03*
D13*
X92710000Y-161290000D03*
X92710000Y-156210000D03*
X97790000Y-156210000D03*
X97790000Y-161290000D03*
D10*
X110490000Y-93980000D03*
X107950000Y-93980000D03*
D11*
X105410000Y-93980000D03*
D10*
X105410000Y-111760000D03*
X107950000Y-111760000D03*
X110490000Y-111760000D03*
D12*
X95250000Y-74930000D03*
D13*
X92710000Y-77470000D03*
X97790000Y-77470000D03*
X97790000Y-72390000D03*
X92710000Y-72390000D03*
D16*
X133387500Y-133397500D03*
D17*
X133387500Y-135937500D03*
X133387500Y-138477500D03*
X133387500Y-141017500D03*
D10*
X110490000Y-123190000D03*
X107950000Y-123190000D03*
D11*
X105410000Y-123190000D03*
D10*
X105410000Y-140970000D03*
X107950000Y-140970000D03*
X110490000Y-140970000D03*
D16*
X95287500Y-133397500D03*
D17*
X95287500Y-135937500D03*
X95287500Y-138477500D03*
X95287500Y-141017500D03*
D12*
X135890000Y-74930000D03*
D13*
X133350000Y-77470000D03*
X133350000Y-72390000D03*
X138430000Y-72390000D03*
X138430000Y-77470000D03*
D14*
X119380000Y-157480000D03*
D15*
X124380000Y-157480000D03*
D16*
X95287500Y-104187500D03*
D17*
X95287500Y-106727500D03*
X95287500Y-109267500D03*
X95287500Y-111807500D03*
D14*
X124460000Y-76200000D03*
D15*
X119460000Y-76200000D03*
D10*
X125730000Y-93980000D03*
X123190000Y-93980000D03*
D11*
X120650000Y-93980000D03*
D10*
X120650000Y-111760000D03*
X123190000Y-111760000D03*
X125730000Y-111760000D03*
D16*
X132715000Y-104140000D03*
D17*
X132715000Y-106680000D03*
X132715000Y-109220000D03*
X132715000Y-111760000D03*
D14*
X111760000Y-76200000D03*
D15*
X106760000Y-76200000D03*
D10*
X142240000Y-127000000D03*
X142240000Y-129540000D03*
X142240000Y-132080000D03*
X142240000Y-134620000D03*
X142240000Y-137160000D03*
X142240000Y-139700000D03*
X142240000Y-142240000D03*
X142240000Y-144780000D03*
X142240000Y-147320000D03*
X142240000Y-149860000D03*
X144780000Y-149860000D03*
X144780000Y-147320000D03*
X144780000Y-144780000D03*
X144780000Y-142240000D03*
X144780000Y-139700000D03*
X144780000Y-137160000D03*
X144780000Y-134620000D03*
X144780000Y-132080000D03*
X144780000Y-129540000D03*
X144780000Y-127000000D03*
X86360000Y-127000000D03*
X86360000Y-129540000D03*
X86360000Y-132080000D03*
X86360000Y-134620000D03*
X86360000Y-137160000D03*
X86360000Y-139700000D03*
X86360000Y-142240000D03*
X86360000Y-144780000D03*
X86360000Y-147320000D03*
X86360000Y-149860000D03*
X88900000Y-149860000D03*
X88900000Y-147320000D03*
X88900000Y-144780000D03*
X88900000Y-142240000D03*
X88900000Y-139700000D03*
X88900000Y-137160000D03*
X88900000Y-134620000D03*
X88900000Y-132080000D03*
X88900000Y-129540000D03*
X88900000Y-127000000D03*
M02*
