M48
; DRILL file {KiCad (6.0.0)} date Tue Aug 16 09:43:48 2022
; FORMAT={-:-/ absolute / metric / decimal}
; #@! TF.CreationDate,2022-08-16T09:43:48-05:00
; #@! TF.GenerationSoftware,Kicad,Pcbnew,(6.0.0)
; #@! TF.FileFunction,Plated,1,2,PTH
FMAT,2
METRIC
; #@! TA.AperFunction,Plated,PTH,ViaDrill
T1C0.400
; #@! TA.AperFunction,Plated,PTH,ComponentDrill
T2C0.700
; #@! TA.AperFunction,Plated,PTH,ComponentDrill
T3C0.800
; #@! TA.AperFunction,Plated,PTH,ComponentDrill
T4C1.300
; #@! TA.AperFunction,Plated,PTH,ComponentDrill
T5C1.500
; #@! TA.AperFunction,Plated,PTH,ComponentDrill
T6C1.700
%
G90
G05
T1
X100.33Y-118.11
X103.505Y-100.965
X103.505Y-102.235
X103.505Y-103.505
X103.505Y-130.175
X103.505Y-131.445
X103.505Y-132.715
X106.045Y-118.11
X117.475Y-135.255
X117.475Y-138.43
X118.745Y-100.965
X118.745Y-102.235
X118.745Y-103.505
X118.745Y-130.175
X118.745Y-131.445
X118.745Y-132.715
X119.38Y-106.68
X130.81Y-123.825
X132.08Y-125.095
X133.985Y-118.745
X137.795Y-127.0
T2
X95.287Y-104.188
X95.287Y-106.727
X95.287Y-109.267
X95.287Y-111.807
X95.287Y-133.398
X95.287Y-135.938
X95.287Y-138.477
X95.287Y-141.017
X132.715Y-104.14
X132.715Y-106.68
X132.715Y-109.22
X132.715Y-111.76
X133.387Y-133.398
X133.387Y-135.938
X133.387Y-138.477
X133.387Y-141.017
T3
X86.36Y-127.0
X86.36Y-129.54
X86.36Y-132.08
X86.36Y-134.62
X86.36Y-137.16
X86.36Y-139.7
X86.36Y-142.24
X86.36Y-144.78
X86.36Y-147.32
X86.36Y-149.86
X88.9Y-127.0
X88.9Y-129.54
X88.9Y-132.08
X88.9Y-134.62
X88.9Y-137.16
X88.9Y-139.7
X88.9Y-142.24
X88.9Y-144.78
X88.9Y-147.32
X88.9Y-149.86
X105.41Y-93.98
X105.41Y-111.76
X105.41Y-123.19
X105.41Y-140.97
X107.95Y-93.98
X107.95Y-111.76
X107.95Y-123.19
X107.95Y-140.97
X110.49Y-93.98
X110.49Y-111.76
X110.49Y-123.19
X110.49Y-140.97
X120.65Y-93.98
X120.65Y-111.76
X120.65Y-123.19
X120.65Y-140.97
X123.19Y-93.98
X123.19Y-111.76
X123.19Y-123.19
X123.19Y-140.97
X125.73Y-93.98
X125.73Y-111.76
X125.73Y-123.19
X125.73Y-140.97
X142.24Y-127.0
X142.24Y-129.54
X142.24Y-132.08
X142.24Y-134.62
X142.24Y-137.16
X142.24Y-139.7
X142.24Y-142.24
X142.24Y-144.78
X142.24Y-147.32
X142.24Y-149.86
X144.78Y-127.0
X144.78Y-129.54
X144.78Y-132.08
X144.78Y-134.62
X144.78Y-137.16
X144.78Y-139.7
X144.78Y-142.24
X144.78Y-144.78
X144.78Y-147.32
X144.78Y-149.86
T4
X106.68Y-157.48
X106.76Y-76.2
X111.68Y-157.48
X111.76Y-76.2
X119.38Y-157.48
X119.46Y-76.2
X124.38Y-157.48
X124.46Y-76.2
T5
X95.25Y-74.93
X95.25Y-158.75
X135.89Y-74.93
X135.89Y-158.75
T6
X92.71Y-72.39
X92.71Y-77.47
X92.71Y-156.21
X92.71Y-161.29
X97.79Y-72.39
X97.79Y-77.47
X97.79Y-156.21
X97.79Y-161.29
X133.35Y-72.39
X133.35Y-77.47
X133.35Y-156.21
X133.35Y-161.29
X138.43Y-72.39
X138.43Y-77.47
X138.43Y-156.21
X138.43Y-161.29
T0
M30
